#!OML:ASF X:\für Bonn\!DataBase\2005_08_11_Bastian_Final\c3d\Bastian.ASF
:FULLY-SPECIFIED
:DEGREES
48
root 1.2218 22.4588 24.1618 717.061 2.88555 -3.78159
lowerback 11.0019 -2.84862 1.65649
upperback 5.17307 -3.60292 -0.00994638
thorax -0.869381 -1.77287 -0.522737
lowerneck -2.13145 -2.44069 -0.689835
upperneck 2.9261 -3.46349 6.67321
head 1.4262 -1.63115 2.16207
rclavicle 1.70955e-014 -4.77083e-015
rhumerus -32.9157 19.4873 -87.0269
rradius 75.0359
rwrist -0.188324
rhand -18.3623 21.4403
rfingers 7.12502
rthumb 7.92063 -8.39131
lclavicle 1.70955e-014 -4.77083e-015
lhumerus -37.0365 1.8114 74.6302
lradius 86.4112
lwrist 200.17
lhand -28.3558 16.7377
lfingers 7.12502
lthumb -1.72959 46.7105
rfemur -25.032 -8.53146 25.482
rtibia 63.9612
rfoot -5.088 1.82918
rtoes -51.8977
lfemur -19.5429 11.444 -15.4398
ltibia 49.2004
lfoot 10.0149 -4.41179
ltoes -25.2456
49
root 1.2165 22.4467 24.3335 717.034 2.79539 -3.87202
lowerback 11.6325 -2.85734 1.92682
upperback 5.35612 -3.57107 0.0593022
thorax -1.03055 -1.75297 -0.579731
lowerneck -2.30378 -2.45443 -0.669953
upperneck 2.87691 -3.48077 6.64322
head 1.4402 -1.63794 2.1467
rclavicle 7.13637e-014 -8.34896e-015
rhumerus -32.646 18.8741 -87.3147
rradius 72.5872
rwrist -0.111197
rhand -18.8398 21.5357
rfingers 7.12502
rthumb 7.45983 -8.3128
lclavicle 7.13637e-014 -8.34896e-015
lhumerus -37.1454 1.86899 74.912
lradius 83.5692
lwrist 198.932
lhand -28.1383 15.8578
lfingers 7.12502
lthumb -1.51947 45.8321
rfemur -25.6893 -8.45076 25.4421
rtibia 63.4013
rfoot -5.30652 2.67864
rtoes -53.2156
lfemur -19.6907 11.2234 -15.606
ltibia 47.6812
lfoot 10.4553 -4.76379
ltoes -24.3519
50
root 1.21152 22.4265 24.5077 716.947 2.71266 -3.96648
lowerback 12.331 -2.88108 2.17975
upperback 5.51141 -3.55455 0.140591
thorax -1.25414 -1.74168 -0.608752
lowerneck -2.49191 -2.44966 -0.652028
upperneck 2.93402 -3.47835 6.58166
head 1.48947 -1.63288 2.12178
rclavicle 9.14409e-015 -5.96354e-015
rhumerus -32.4486 18.24 -87.5986
rradius 70.2081
rwrist -0.144692
rhand -19.2278 21.4383
rfingers 7.12502
rthumb 7.08524 -8.42314
lclavicle 9.14409e-015 -5.96354e-015
lhumerus -37.245 2.01639 75.162
lradius 80.8175
lwrist 197.59
lhand -27.8275 14.8464
lfingers 7.12502
lthumb -1.21932 44.8227
rfemur -26.2383 -8.30405 25.3895
rtibia 62.7275
rfoot -5.32538 3.36025
rtoes -54.2474
lfemur -19.6799 10.971 -15.7315
ltibia 46.0556
lfoot 11.0044 -5.05942
ltoes -24.2936
51
root 1.20567 22.398 24.6848 716.813 2.61391 -4.08627
lowerback 13.0763 -2.9007 2.46065
upperback 5.66636 -3.5237 0.21298
thorax -1.50296 -1.72306 -0.662623
lowerneck -2.20241 -2.46116 -0.609385
upperneck 2.32012 -3.45458 6.52547
head 1.23913 -1.63984 2.09818
rclavicle -3.926e-014 2.8625e-014
rhumerus -32.2863 17.5092 -87.8665
rradius 67.9251
rwrist -0.110326
rhand -19.6088 21.2264
rfingers 7.12502
rthumb 6.7175 -8.64704
lclavicle -3.926e-014 2.8625e-014
lhumerus -37.249 2.25223 75.3812
lradius 78.0898
lwrist 196.277
lhand -27.413 13.8579
lfingers 7.12502
lthumb -0.818929 43.836
rfemur -26.6343 -8.15749 25.3557
rtibia 61.9547
rfoot -5.2263 3.90293
rtoes -55.0272
lfemur -19.5785 10.6999 -15.7965
ltibia 44.3797
lfoot 11.6358 -5.28541
ltoes -24.3891
52
root 1.20023 22.3594 24.8631 716.612 2.52587 -4.18529
lowerback 13.8776 -2.92853 2.70042
upperback 5.82445 -3.5016 0.295887
thorax -1.77342 -1.70979 -0.679196
lowerneck -1.68074 -2.46633 -0.471957
upperneck 1.39333 -3.40124 6.31029
head 0.845499 -1.64359 2.01053
rclavicle 2.38542e-014 -1.94809e-014
rhumerus -32.1935 16.8324 -88.0763
rradius 65.6851
rwrist -0.0604588
rhand -19.9348 20.87
rfingers 7.12502
rthumb 6.40279 -9.01325
lclavicle 2.38542e-014 -1.94809e-014
lhumerus -37.1862 2.47906 75.5579
lradius 75.2567
lwrist 194.904
lhand -27.0839 12.7888
lfingers 7.12502
lthumb -0.501079 42.768
rfemur -26.9106 -8.00869 25.2679
rtibia 61.0956
rfoot -5.01322 4.28373
rtoes -55.5456
lfemur -19.3727 10.3911 -15.851
ltibia 42.6928
lfoot 12.3226 -5.42684
ltoes -24.6858
53
root 1.1944 22.3105 25.0431 716.488 2.41027 -4.21558
lowerback 14.5989 -2.93531 2.87581
upperback 5.96108 -3.4595 0.356197
thorax -2.01856 -1.68737 -0.690251
lowerneck -1.56148 -2.48744 -0.340188
upperneck 0.933842 -3.40175 6.07801
head 0.672988 -1.65684 1.91448
rclavicle -4.90004e-014 7.55382e-015
rhumerus -32.1448 16.205 -88.2658
rradius 63.3944
rwrist -0.0175801
rhand -20.3976 20.4279
rfingers 7.12502
rthumb 5.95592 -9.46842
lclavicle -4.90004e-014 7.55382e-015
lhumerus -36.9767 2.71197 75.7593
lradius 72.1274
lwrist 193.232
lhand -26.6796 12.0301
lfingers 7.12502
lthumb -0.110658 42.0098
rfemur -27.2122 -7.79579 25.0902
rtibia 60.1332
rfoot -4.73534 4.50817
rtoes -55.8252
lfemur -19.2645 10.1268 -15.9803
ltibia 41.0792
lfoot 12.9559 -5.53132
ltoes -25.5436
54
root 1.18995 22.2476 25.2252 716.45 2.29424 -4.24747
lowerback 15.2262 -2.94728 3.06735
upperback 6.07161 -3.42254 0.412534
thorax -2.24062 -1.66753 -0.71805
lowerneck -1.69128 -2.50546 -0.23395
upperneck 0.743895 -3.41711 5.87811
head 0.629566 -1.66745 1.8302
rclavicle -4.94974e-014 3.45885e-014
rhumerus -32.1058 15.6539 -88.4402
rradius 61.0714
rwrist -0.0577494
rhand -20.8101 19.8799
rfingers 7.12502
rthumb 5.55765 -10.0272
lclavicle -4.94974e-014 3.45885e-014
lhumerus -36.7024 2.97584 75.9324
lradius 68.8927
lwrist 191.397
lhand -26.2016 11.5035
lfingers 7.12502
lthumb 0.351054 41.4829
rfemur -27.5369 -7.56852 24.9061
rtibia 59.0675
rfoot -4.43507 4.60855
rtoes -56.1853
lfemur -19.286 9.83776 -16.1089
ltibia 39.5756
lfoot 13.5116 -5.47382
ltoes -26.7326
